<?xml version="1.0" encoding="UTF-8"?>
<svg width="20px" height="20px" viewBox="0 0 20 20" version="1.1" xmlns="http://www.w3.org/2000/svg" xmlns:xlink="http://www.w3.org/1999/xlink">
    <!-- Generator: Sketch 41.2 (35397) - http://www.bohemiancoding.com/sketch -->
    <title>Group</title>
    <desc>Created with Sketch.</desc>
    <defs></defs>
    <g id="Page-1" stroke="none" stroke-width="1" fill="none" fill-rule="evenodd">
        <g id="0-10-Desktop-HD-Quick-View" transform="translate(-1100.000000, -189.000000)" fill="#BBBBBB">
            <g id="Group" transform="translate(1100.000000, 189.000000)">
                <path d="M18.9930435,19.7826087 C18.791087,19.7826087 18.588913,19.7054348 18.4347826,19.5513043 L0.448478261,1.56521739 C0.14,1.25717391 0.14,0.75673913 0.448478261,0.448695652 C0.756956522,0.140217391 1.25673913,0.140217391 1.56521739,0.448695652 L19.5515217,18.4347826 C19.86,18.7428261 19.86,19.2432609 19.5515217,19.5513043 C19.3971739,19.7056522 19.195,19.7826087 18.9930435,19.7826087 Z" id="Shape"></path>
                <path d="M1.00695652,19.7826087 C0.805,19.7826087 0.602826087,19.7054348 0.448695652,19.5513043 C0.140217391,19.2432609 0.140217391,18.7428261 0.448695652,18.4347826 L18.4347826,0.448478261 C18.7432609,0.14 19.2430435,0.14 19.5515217,0.448478261 C19.86,0.756521739 19.86,1.25695652 19.5515217,1.565 L1.56521739,19.5513043 C1.41108696,19.7056522 1.20891304,19.7826087 1.00695652,19.7826087 Z" id="Shape"></path>
            </g>
        </g>
    </g>
</svg>