<?xml version="1.0" encoding="UTF-8" standalone="no"?>
<svg width="10px" height="13px" viewBox="0 0 10 13" version="1.1" xmlns="http://www.w3.org/2000/svg" xmlns:xlink="http://www.w3.org/1999/xlink">
    <!-- Generator: Sketch 41 (35326) - http://www.bohemiancoding.com/sketch -->
    <title>ic_delete_forever_black_24px</title>
    <desc>Created with Sketch.</desc>
    <defs></defs>
    <g id="Page-1" stroke="none" stroke-width="1" fill="none" fill-rule="evenodd">
        <g id="0-20-Desktop-HD-Catalogo-Pag-Infinita" transform="translate(-101.000000, -799.000000)" fill="#999999">
            <g id="ic_delete_forever_black_24px" transform="translate(101.000000, 799.000000)">
                <g id="Group">
                    <path d="M0.714285714,11.4285714 C0.714285714,12.2142857 1.35714286,12.8571429 2.14285714,12.8571429 L7.85714286,12.8571429 C8.64285714,12.8571429 9.28571429,12.2142857 9.28571429,11.4285714 L9.28571429,2.85714286 L0.714285714,2.85714286 L0.714285714,11.4285714 Z M2.47142857,6.34285714 L3.47857143,5.33571429 L5,6.85 L6.51428571,5.33571429 L7.52142857,6.34285714 L6.00714286,7.85714286 L7.52142857,9.37142857 L6.51428571,10.3785714 L5,8.86428571 L3.48571429,10.3785714 L2.47857143,9.37142857 L3.99285714,7.85714286 L2.47142857,6.34285714 Z M7.5,0.714285714 L6.78571429,0 L3.21428571,0 L2.5,0.714285714 L0,0.714285714 L0,2.14285714 L10,2.14285714 L10,0.714285714 L7.5,0.714285714 Z" id="Shape"></path>
                </g>
            </g>
        </g>
    </g>
</svg>