<?xml version="1.0" encoding="UTF-8"?>
<svg width="26px" height="26px" viewBox="0 0 26 26" version="1.1" xmlns="http://www.w3.org/2000/svg" xmlns:xlink="http://www.w3.org/1999/xlink">
    <!-- Generator: Sketch 42 (36781) - http://www.bohemiancoding.com/sketch -->
    <title>Shape</title>
    <desc>Created with Sketch.</desc>
    <defs></defs>
    <g id="Page-1" stroke="none" stroke-width="1" fill="none" fill-rule="evenodd">
        <g id="0-50-Desktop-HD-Checkout" transform="translate(-438.000000, -132.000000)" fill="#757575">
            <g id="Group-8" transform="translate(393.000000, 130.000000)">
                <g id="Group-2">
                    <g id="ic_account_circle_black_24px" transform="translate(43.000000, 0.000000)">
                        <g id="Group">
                            <path d="M15,2.5 C8.1,2.5 2.5,8.1 2.5,15 C2.5,21.9 8.1,27.5 15,27.5 C21.9,27.5 27.5,21.9 27.5,15 C27.5,8.1 21.9,2.5 15,2.5 Z M15,6.25 C17.075,6.25 18.75,7.925 18.75,10 C18.75,12.075 17.075,13.75 15,13.75 C12.925,13.75 11.25,12.075 11.25,10 C11.25,7.925 12.925,6.25 15,6.25 Z M15,24 C11.875,24 9.1125,22.4 7.5,19.975 C7.5375,17.4875 12.5,16.125 15,16.125 C17.4875,16.125 22.4625,17.4875 22.5,19.975 C20.8875,22.4 18.125,24 15,24 Z" id="Shape"></path>
                        </g>
                    </g>
                </g>
            </g>
        </g>
    </g>
</svg>