<?xml version="1.0" encoding="UTF-8"?>
<svg width="20px" height="20px" viewBox="0 0 20 20" version="1.1" xmlns="http://www.w3.org/2000/svg" xmlns:xlink="http://www.w3.org/1999/xlink">
    <!-- Generator: Sketch 42 (36781) - http://www.bohemiancoding.com/sketch -->
    <title>Group 2</title>
    <desc>Created with Sketch.</desc>
    <defs></defs>
    <g id="Page-1" stroke="none" stroke-width="1" fill="none" fill-rule="evenodd">
        <g id="Smartphone" transform="translate(-283.000000, -18.000000)" fill="#757575">
            <g id="Group-2" transform="translate(283.000000, 18.000000)">
                <g id="ic_shopping_cart_black_48px">
                    <g id="Group">
                        <path d="M5.98385167,15.9545455 C4.93450957,15.9545455 4.08549641,16.8224026 4.08549641,17.8831169 C4.08549641,18.9438312 4.93450957,19.8116883 5.98385167,19.8116883 C7.03319378,19.8116883 7.89174641,18.9438312 7.89174641,17.8831169 C7.89174641,16.8224026 7.03319378,15.9545455 5.98385167,15.9545455 Z M0.260167464,0.525974026 L0.260167464,2.45454545 L2.1680622,2.45454545 L5.60227273,9.77347403 L4.31444378,12.135974 C4.1618122,12.405974 4.07595694,12.7241883 4.07595694,13.0616883 C4.07595694,14.1224026 4.93450957,14.9902597 5.98385167,14.9902597 L17.4312201,14.9902597 L17.4312201,13.0616883 L6.38450957,13.0616883 C6.25095694,13.0616883 6.14602273,12.9556169 6.14602273,12.8206169 L6.17464115,12.7049026 L7.03319378,11.1331169 L14.1401017,11.1331169 C14.8555622,11.1331169 15.4851675,10.7377597 15.8095096,10.1399026 L19.2246411,3.88168831 C19.3009569,3.74668831 19.3391148,3.58275974 19.3391148,3.41883117 C19.3391148,2.88847403 18.9098385,2.45454545 18.3851675,2.45454545 L4.27628589,2.45454545 L3.37957536,0.525974026 L0.260167464,0.525974026 Z M15.5233254,15.9545455 C14.4739833,15.9545455 13.6249701,16.8224026 13.6249701,17.8831169 C13.6249701,18.9438312 14.4739833,19.8116883 15.5233254,19.8116883 C16.5726675,19.8116883 17.4312201,18.9438312 17.4312201,17.8831169 C17.4312201,16.8224026 16.5726675,15.9545455 15.5233254,15.9545455 Z" id="Shape"></path>
                    </g>
                </g>
            </g>
        </g>
    </g>
</svg>